<svg width="160" height="160" viewBox="0 0 160 160" fill="none" xmlns="http://www.w3.org/2000/svg">
  <circle cx="80" cy="80" r="80" fill="#F8FEF6"/>
  <path d="M80 34C60.3269 34 44 50.3269 44 70.9999C44 86.1686 52.9395 98.8766 66 104.363V118.5C66 121.537 68.4624 124 71.5 124H88.5C91.5376 124 94 121.537 94 118.5V104.363C107.06 98.8766 116 86.1686 116 70.9999C116 50.3269 99.6731 34 80 34Z" fill="#22C55E"/>
  <path d="M68 120H92C93.1046 120 94 120.896 94 122V126C94 127.104 93.1046 128 92 128H68C66.8954 128 66 127.104 66 126V122C66 120.896 66.8954 120 68 120Z" fill="#16A34A"/>
  <path d="M76 128H84C84.5523 128 85 128.448 85 129V132C85 132.552 84.5523 133 84 133H76C75.4477 133 75 132.552 75 132V129C75 128.448 75.4477 128 76 128Z" fill="#16A34A"/>
  <path d="M80 48C71.1634 48 64 55.1634 64 64H96C96 55.1634 88.8366 48 80 48Z" fill="#DCFCE7"/>
</svg>
