<svg width="160" height="160" viewBox="0 0 160 160" fill="none" xmlns="http://www.w3.org/2000/svg">
  <circle cx="80" cy="80" r="80" fill="#F8FAFF"/>
  <path d="M72 48C69.7909 48 68 49.7909 68 52V78C68 80.2091 69.7909 82 72 82H88C90.2091 82 92 80.2091 92 78V52C92 49.7909 90.2091 48 88 48H72Z" fill="#0F172A"/>
  <path d="M80 78C74.4772 78 70 82.4772 70 88V96C70 101.523 74.4772 106 80 106C85.5228 106 90 101.523 90 96V88C90 82.4772 85.5228 78 80 78Z" fill="#0F172A"/>
  <path d="M58 88L50 82V126C50 128.21 51.79 130 54 130H74V98H86V130H106C108.21 130 110 128.21 110 126V82L102 88V132H58V88Z" fill="#0F172A"/>
  <path d="M104 54H124V66H110L104 72V54Z" fill="#0F172A"/>
  <path d="M84 46C84 40.4772 88.4772 36 94 36H106C111.523 36 116 40.4772 116 46V66H102V54H94V66H84V46Z" fill="#1E293B"/>
  <path d="M84 72C84 75.3137 86.6863 78 90 78H98C101.314 78 104 75.3137 104 72V70H84V72Z" fill="#0F172A"/>
</svg>
