<svg width="160" height="160" viewBox="0 0 160 160" fill="none" xmlns="http://www.w3.org/2000/svg">
  <circle cx="80" cy="80" r="80" fill="#F0FAFF"/>
  <path d="M80 40C71.1634 40 64 47.1634 64 56V82.379C64 91.2619 69.5322 99.0404 77.5 102.993L76.5 116H84.5L83.5 102.993C91.4678 99.0404 97 91.2619 97 82.379V56C97 47.1634 89.8366 40 81 40H80Z" fill="#38BDF8"/>
  <path d="M80 56C76.6863 56 74 58.6863 74 62C74 65.3137 76.6863 68 80 68C83.3137 68 86 65.3137 86 62C86 58.6863 83.3137 56 80 56Z" fill="#FFFFFF"/>
  <path d="M92 104L101 119L104 117C106.209 115.146 109.822 114.157 112.674 115.76C115.527 117.363 116.461 121.176 114.659 123.676L109.334 131.617C107.532 134.117 103.651 134.447 101.101 132.646L96 129.5V136C96 137.105 95.105 138 94 138H66C64.8954 138 64 137.105 64 136V129.5L58.8994 132.646C56.35 134.447 52.469 134.117 50.667 131.617L45.342 123.676C43.54 121.176 44.474 117.363 47.326 115.76C50.178 114.157 53.791 115.146 56 117L59 119L68 104V96C68 86.0589 76.0589 78 86 78H94C103.941 78 112 86.0589 112 96V104H92Z" fill="#0EA5E9"/>
  <path d="M62 74L56 68L42 82L46 86L62 74Z" fill="#38BDF8"/>
</svg>
